<svg data-v-29081953="" xmlns="http://www.w3.org/2000/svg" viewBox="0 0 300 300"><!----><defs data-v-29081953=""><!----></defs><rect data-v-29081953="" fill="#161C60" x="0" y="0" width="300px" height="300px" class="logo-background-square"></rect><!----><defs data-v-29081953=""><!----></defs><g data-v-29081953="" id="072bb5c9-236a-4048-8843-26cf8e25e265" fill="#25BDD6" stroke="none" transform="matrix(3.66666689978707,0,0,3.66666689978707,32.668532620654595,32.66666620042586)"><path d="M60.535 21.203c-1.835-4.758-7.313-7.596-15.13-7.897C42.436 6.386 37.824 2 32.545 2c-4.735 0-8.93 3.534-11.89 9.251-.505-.026-1.018-.068-1.509-.068-5.896 0-10.307 1.969-12.421 5.542-.136.229-.233.477-.349.716a3.73 3.73 0 0 0-3.542 3.721 3.74 3.74 0 0 0 2.907 3.641c.363 1.64 1.001 3.356 1.94 5.126-3.471 4.527-4.601 9.049-3.129 12.863 1.834 4.758 7.313 7.596 15.128 7.896 1.161 2.707 2.575 5.02 4.181 6.841A3.74 3.74 0 0 0 27.527 62c.696 0 1.34-.201 1.898-.533a9.571 9.571 0 0 0 3.12.533c4.736 0 8.932-3.535 11.892-9.258.504.028 1.016.068 1.505.068 5.896 0 10.306-1.967 12.421-5.541 2.082-3.52 1.717-8.165-.957-13.203 3.47-4.527 4.6-9.047 3.129-12.863zm-2.003.774c1.12 2.901.288 6.424-2.302 10.08-.179-.277-.393-.55-.582-.826a3.724 3.724 0 0 0 1.049-2.588 3.741 3.741 0 0 0-5.842-3.094 47.625 47.625 0 0 0-2.668-2.441 44.482 44.482 0 0 0-1.921-7.601c6.332.447 10.848 2.791 12.266 6.47zm-3.799 11.698c.036.06.063.116.099.177-.045.053-.081.105-.127.158-1.731 1.986-3.89 3.859-6.339 5.578.333-2.42.527-4.951.527-7.588 0-1.944-.105-3.832-.289-5.664.312.291.597.591.895.887a3.705 3.705 0 0 0-.283 1.42 3.74 3.74 0 0 0 3.74 3.74c.292 0 .572-.041.844-.104.322.464.646.928.933 1.396zm-9.129-12.61a55.99 55.99 0 0 0-4.736-3.139 55.035 55.035 0 0 0-3.555-1.911c2.266-.381 4.487-.587 6.618-.592a39.787 39.787 0 0 1 1.673 5.642zM32.545 4.146c4.16 0 7.896 3.548 10.496 9.155-2.917.074-5.97.478-9.07 1.197-3.741-1.547-7.481-2.582-10.989-3.033 2.527-4.528 5.877-7.319 9.563-7.319zm-10.586 9.349c2.694.278 5.563.949 8.48 1.955a56.55 56.55 0 0 0-3.777 1.295 54.695 54.695 0 0 0-6.912 3.244c.581-2.371 1.325-4.552 2.209-6.494zm-2.813-.166c.168 0 .348.021.519.023-1.038 2.43-1.866 5.171-2.455 8.146-3.13 1.992-5.857 4.236-8.037 6.642a17.773 17.773 0 0 1-1.269-3.493 3.733 3.733 0 0 0 2.412-3.486A3.726 3.726 0 0 0 8.5 17.968c.027-.049.044-.103.072-.15 1.713-2.895 5.468-4.489 10.574-4.489zM16.484 37.66c-2.492-2.331-4.577-4.813-6.13-7.341-.037-.06-.063-.117-.1-.177.046-.053.081-.104.128-.158 1.732-1.988 3.891-3.861 6.342-5.58A55.708 55.708 0 0 0 16.195 32c0 1.942.106 3.83.289 5.66zm-9.928 4.359c-1.119-2.903-.289-6.425 2.302-10.081 2.006 3.129 4.746 6.174 8.044 8.949a44.402 44.402 0 0 0 1.92 7.602c-6.332-.45-10.848-2.792-12.266-6.47zM18.342 32c0-3.221.295-6.302.81-9.183a51.924 51.924 0 0 1 8.283-4.07 53.563 53.563 0 0 1 6.347-2.007 52.515 52.515 0 0 1 5.994 3.033c2.3 1.36 4.44 2.862 6.399 4.455.366 2.47.573 5.073.573 7.771 0 3.217-.294 6.297-.808 9.174a51.775 51.775 0 0 1-8.288 4.072 52.965 52.965 0 0 1-6.347 2.008 52.516 52.516 0 0 1-5.994-3.033 52.51 52.51 0 0 1-6.396-4.454A52.985 52.985 0 0 1 18.342 32zm1.141 10.929a55.809 55.809 0 0 0 4.735 3.139 54.809 54.809 0 0 0 3.555 1.911c-2.266.381-4.487.588-6.618.592a40.051 40.051 0 0 1-1.672-5.642zm13.062 16.925a7.344 7.344 0 0 1-1.56-.169 3.74 3.74 0 0 0-3.457-5.166 3.72 3.72 0 0 0-2.546 1.014c-1.086-1.353-2.075-2.98-2.938-4.841 2.918-.073 5.971-.478 9.071-1.197 3.744 1.548 7.486 2.583 10.995 3.034-2.526 4.534-5.879 7.325-9.565 7.325zM43.133 50.5c-2.695-.278-5.566-.949-8.484-1.956a55.963 55.963 0 0 0 3.776-1.295 54.5 54.5 0 0 0 6.917-3.247c-.58 2.372-1.325 4.555-2.209 6.498zm13.382-4.322c-1.712 2.895-5.467 4.487-10.573 4.487-.167 0-.346-.021-.515-.024 1.038-2.43 1.866-5.172 2.455-8.148 3.128-1.992 5.854-4.234 8.032-6.639 1.949 4.033 2.186 7.644.601 10.324z"></path></g><!----></svg>