<svg data-v-d3f97b9e="" xmlns="http://www.w3.org/2000/svg" viewBox="0 0 614.3142281726955 163"><!----><!----><!----><g data-v-d3f97b9e="" id="26d0ffba-099c-479d-9d9e-4cd99785e18b" fill="black" transform="matrix(4.2857139937731885,0,0,4.2857139937731885,-0.34285330453286633,88.21429009340241)"><path d="M0.08 14.43L0.08 14.43L0.08 14.01L0.08 14.01Q0.08 13.80 0.29 13.80L0.29 13.80L0.29 13.80Q0.40 13.80 0.48 13.78L0.48 13.78L0.48 13.78Q0.57 13.77 0.64 13.71L0.64 13.71L0.64 13.71Q0.72 13.66 0.78 13.62L0.78 13.62L0.78 13.62Q0.83 13.58 0.90 13.48L0.90 13.48L0.90 13.48Q0.96 13.38 0.99 13.33L0.99 13.33L0.99 13.33Q1.03 13.28 1.08 13.14L1.08 13.14L1.08 13.14Q1.14 13.00 1.17 12.94L1.17 12.94L1.17 12.94Q1.19 12.88 1.25 12.70L1.25 12.70L1.25 12.70Q1.32 12.53 1.34 12.47L1.34 12.47L4.35 4.32L4.35 4.32Q4.42 4.15 4.59 4.15L4.59 4.15L6.28 4.15L6.28 4.15Q6.47 4.15 6.52 4.31L6.52 4.31L9.68 12.47L9.68 12.47Q9.71 12.53 9.77 12.70L9.77 12.70L9.77 12.70Q9.83 12.87 9.85 12.93L9.85 12.93L9.85 12.93Q9.88 12.99 9.94 13.13L9.94 13.13L9.94 13.13Q9.99 13.26 10.03 13.32L10.03 13.32L10.03 13.32Q10.07 13.38 10.13 13.48L10.13 13.48L10.13 13.48Q10.19 13.58 10.25 13.62L10.25 13.62L10.25 13.62Q10.30 13.66 10.37 13.71L10.37 13.71L10.37 13.71Q10.45 13.76 10.53 13.78L10.53 13.78L10.53 13.78Q10.62 13.80 10.71 13.80L10.71 13.80L10.71 13.80Q10.92 13.80 10.92 14.01L10.92 14.01L10.92 14.43L10.92 14.43Q10.92 14.64 10.71 14.64L10.71 14.64L6.42 14.64L6.42 14.64Q6.21 14.64 6.21 14.43L6.21 14.43L6.21 14.01L6.21 14.01Q6.21 13.80 6.42 13.80L6.42 13.80L6.42 13.80Q6.86 13.80 7.18 13.53L7.18 13.53L7.18 13.53Q7.50 13.25 7.50 12.84L7.50 12.84L7.50 12.84Q7.50 12.65 7.43 12.47L7.43 12.47L6.99 11.29L3.17 11.29L2.75 12.47L2.75 12.47Q2.69 12.65 2.69 12.82L2.69 12.82L2.69 12.82Q2.69 13.23 3.01 13.52L3.01 13.52L3.01 13.52Q3.34 13.80 3.77 13.80L3.77 13.80L3.77 13.80Q3.99 13.80 3.99 14.01L3.99 14.01L3.99 14.43L3.99 14.43Q3.99 14.64 3.77 14.64L3.77 14.64L0.29 14.64L0.29 14.64Q0.08 14.64 0.08 14.43ZM5.04 5.97L3.59 10.07L6.55 10.07L5.04 5.97ZM10.44 8.28L10.44 8.28L10.44 7.85L10.44 7.85Q10.44 7.65 10.65 7.65L10.65 7.65L10.68 7.64L13.50 7.64L13.50 7.64Q13.71 7.64 13.71 7.85L13.71 7.85L13.71 11.93L13.71 11.93Q13.71 11.97 13.71 12.04L13.71 12.04L13.71 12.04Q13.71 12.26 13.71 12.37L13.71 12.37L13.71 12.37Q13.71 12.48 13.73 12.67L13.73 12.67L13.73 12.67Q13.75 12.87 13.78 12.97L13.78 12.97L13.78 12.97Q13.82 13.07 13.89 13.21L13.89 13.21L13.89 13.21Q13.97 13.34 14.07 13.42L14.07 13.42L14.07 13.42Q14.18 13.49 14.34 13.54L14.34 13.54L14.34 13.54Q14.51 13.59 14.72 13.59L14.72 13.59L14.72 13.59Q15.22 13.59 15.73 13.22L15.73 13.22L15.73 13.22Q16.24 12.86 16.42 12.40L16.42 12.40L16.42 9.82L16.42 9.82Q16.42 9.22 16.15 8.85L16.15 8.85L16.15 8.85Q15.89 8.48 15.39 8.48L15.39 8.48L15.36 8.48L15.36 8.48Q15.16 8.48 15.16 8.28L15.16 8.28L15.16 7.85L15.16 7.85Q15.16 7.66 15.37 7.64L15.37 7.64L18.18 7.64L18.18 7.64Q18.39 7.64 18.39 7.85L18.39 7.85L18.39 11.81L18.39 11.81Q18.39 12.15 18.41 12.37L18.41 12.37L18.41 12.37Q18.44 12.60 18.51 12.85L18.51 12.85L18.51 12.85Q18.59 13.10 18.76 13.25L18.76 13.25L18.76 13.25Q18.94 13.39 19.22 13.42L19.22 13.42L19.22 13.42Q19.39 13.44 19.38 13.60L19.38 13.60L19.38 14.08L19.38 14.08Q19.38 14.26 19.17 14.26L19.17 14.26L19.17 14.26Q18.53 14.26 18.01 14.35L18.01 14.35L18.01 14.35Q17.49 14.44 17.27 14.53L17.27 14.53L17.27 14.53Q17.04 14.61 16.60 14.80L16.60 14.80L16.60 14.80Q16.55 14.83 16.49 14.83L16.49 14.83L16.45 14.83L16.45 14.83Q16.43 14.83 16.43 14.78L16.43 14.78L16.65 13.02L16.65 13.02Q16.50 13.34 16.27 13.63L16.27 13.63L16.27 13.63Q16.04 13.93 15.73 14.21L15.73 14.21L15.73 14.21Q15.42 14.49 15.00 14.66L15.00 14.66L15.00 14.66Q14.58 14.83 14.12 14.83L14.12 14.83L14.12 14.83Q13.54 14.83 13.11 14.67L13.11 14.67L13.11 14.67Q12.67 14.51 12.42 14.27L12.42 14.27L12.42 14.27Q12.16 14.02 12.01 13.65L12.01 13.65L12.01 13.65Q11.85 13.29 11.80 12.93L11.80 12.93L11.80 12.93Q11.74 12.56 11.74 12.13L11.74 12.13L11.74 9.82L11.74 9.82Q11.74 9.22 11.48 8.85L11.48 8.85L11.48 8.85Q11.21 8.48 10.71 8.48L10.71 8.48L10.65 8.48L10.65 8.48Q10.44 8.48 10.44 8.28ZM19.89 14.43L19.89 14.43L19.89 14.01L19.89 14.01Q19.89 13.80 20.10 13.80L20.10 13.80L20.13 13.80L20.13 13.80Q20.62 13.80 20.89 13.43L20.89 13.43L20.89 13.43Q21.15 13.06 21.15 12.47L21.15 12.47L21.15 10.71L21.15 10.71Q21.15 10.37 21.13 10.14L21.13 10.14L21.13 10.14Q21.10 9.92 21.03 9.67L21.03 9.67L21.03 9.67Q20.95 9.41 20.77 9.27L20.77 9.27L20.77 9.27Q20.60 9.13 20.32 9.10L20.32 9.10L20.32 9.10Q20.15 9.08 20.16 8.92L20.16 8.92L20.16 8.44L20.16 8.44Q20.16 8.29 20.36 8.26L20.36 8.26L20.36 8.26Q21.25 8.11 22.01 7.81L22.01 7.81L22.01 7.81Q22.77 7.50 23.13 7.24L23.13 7.24L23.13 7.24Q23.18 7.21 23.19 7.21L23.19 7.21L23.23 7.21L23.23 7.21Q23.24 7.21 23.24 7.23L23.24 7.23L22.91 9.11L22.91 9.11Q23.29 8.32 23.95 7.89L23.95 7.89L23.95 7.89Q24.61 7.46 25.38 7.46L25.38 7.46L25.38 7.46Q26.07 7.46 26.51 7.84L26.51 7.84L26.51 7.84Q26.96 8.22 26.96 8.91L26.96 8.91L26.96 8.91Q26.96 9.28 26.89 9.49L26.89 9.49L26.89 9.49Q26.82 9.70 26.59 9.80L26.59 9.80L25.28 10.34L25.28 10.34Q25.22 10.36 25.16 10.36L25.16 10.36L25.16 10.36Q25.03 10.36 25.03 10.23L25.03 10.23L25.03 10.23Q25.03 10.16 25.05 10.10L25.05 10.10L25.05 10.10Q25.18 9.79 25.18 9.41L25.18 9.41L25.18 9.41Q25.18 9.04 25.00 8.86L25.00 8.86L25.00 8.86Q24.82 8.68 24.52 8.68L24.52 8.68L24.52 8.68Q24.08 8.68 23.69 9.06L23.69 9.06L23.69 9.06Q23.30 9.44 23.12 9.89L23.12 9.89L23.12 12.47L23.12 12.47Q23.12 13.06 23.39 13.43L23.39 13.43L23.39 13.43Q23.65 13.80 24.14 13.80L24.14 13.80L24.17 13.80L24.17 13.80Q24.38 13.80 24.38 14.01L24.38 14.01L24.38 14.43L24.38 14.43Q24.38 14.64 24.17 14.64L24.17 14.64L20.10 14.64L20.10 14.64Q19.89 14.64 19.89 14.43ZM27.31 11.07L27.31 11.07L27.31 11.07Q27.31 10.01 27.87 9.11L27.87 9.11L27.87 9.11Q28.43 8.20 29.40 7.77L29.40 7.77L29.40 7.77Q30.07 7.47 30.82 7.47L30.82 7.47L30.82 7.47Q31.88 7.47 32.80 8.07L32.80 8.07L32.80 8.07Q33.71 8.66 34.17 9.69L34.17 9.69L34.17 9.69Q34.50 10.41 34.50 11.22L34.50 11.22L34.50 11.22Q34.50 12.28 33.94 13.17L33.94 13.17L33.94 13.17Q33.38 14.07 32.40 14.51L32.40 14.51L32.40 14.51Q31.71 14.81 30.98 14.81L30.98 14.81L30.98 14.81Q29.92 14.81 29.00 14.22L29.00 14.22L29.00 14.22Q28.08 13.62 27.63 12.60L27.63 12.60L27.63 12.60Q27.31 11.87 27.31 11.07ZM28.98 10.19L28.98 10.19L28.98 10.19Q28.98 10.96 29.37 11.83L29.37 11.83L29.37 11.83Q29.73 12.63 30.27 13.16L30.27 13.16L30.27 13.16Q30.81 13.69 31.42 13.69L31.42 13.69L31.42 13.69Q31.69 13.69 31.98 13.57L31.98 13.57L31.98 13.57Q32.83 13.20 32.83 12.09L32.83 12.09L32.83 12.09Q32.83 11.33 32.44 10.46L32.44 10.46L32.44 10.46Q32.07 9.65 31.53 9.12L31.53 9.12L31.53 9.12Q30.99 8.59 30.38 8.59L30.38 8.59L30.38 8.59Q30.11 8.59 29.82 8.72L29.82 8.72L29.82 8.72Q28.98 9.08 28.98 10.19ZM34.99 14.43L34.99 14.43L34.99 14.01L34.99 14.01Q34.99 13.80 35.20 13.80L35.20 13.80L35.23 13.80L35.23 13.80Q35.72 13.80 35.99 13.43L35.99 13.43L35.99 13.43Q36.25 13.06 36.25 12.47L36.25 12.47L36.25 10.71L36.25 10.71Q36.25 10.37 36.23 10.14L36.23 10.14L36.23 10.14Q36.20 9.92 36.13 9.67L36.13 9.67L36.13 9.67Q36.05 9.41 35.88 9.27L35.88 9.27L35.88 9.27Q35.70 9.13 35.42 9.10L35.42 9.10L35.42 9.10Q35.25 9.08 35.26 8.92L35.26 8.92L35.26 8.44L35.26 8.44Q35.26 8.29 35.46 8.26L35.46 8.26L35.46 8.26Q36.35 8.11 37.11 7.81L37.11 7.81L37.11 7.81Q37.87 7.50 38.23 7.24L38.23 7.24L38.23 7.24Q38.28 7.21 38.29 7.21L38.29 7.21L38.33 7.21L38.33 7.21Q38.34 7.21 38.34 7.23L38.34 7.23L38.01 9.11L38.01 9.11Q38.39 8.32 39.05 7.89L39.05 7.89L39.05 7.89Q39.71 7.46 40.48 7.46L40.48 7.46L40.48 7.46Q41.17 7.46 41.61 7.84L41.61 7.84L41.61 7.84Q42.06 8.22 42.06 8.91L42.06 8.91L42.06 8.91Q42.06 9.28 41.99 9.49L41.99 9.49L41.99 9.49Q41.92 9.70 41.69 9.80L41.69 9.80L40.38 10.34L40.38 10.34Q40.32 10.36 40.26 10.36L40.26 10.36L40.26 10.36Q40.13 10.36 40.13 10.23L40.13 10.23L40.13 10.23Q40.13 10.16 40.15 10.10L40.15 10.10L40.15 10.10Q40.28 9.79 40.28 9.41L40.28 9.41L40.28 9.41Q40.28 9.04 40.10 8.86L40.10 8.86L40.10 8.86Q39.92 8.68 39.62 8.68L39.62 8.68L39.62 8.68Q39.18 8.68 38.79 9.06L38.79 9.06L38.79 9.06Q38.40 9.44 38.22 9.89L38.22 9.89L38.22 12.47L38.22 12.47Q38.22 13.06 38.49 13.43L38.49 13.43L38.49 13.43Q38.75 13.80 39.25 13.80L39.25 13.80L39.27 13.80L39.27 13.80Q39.48 13.80 39.48 14.01L39.48 14.01L39.48 14.43L39.48 14.43Q39.48 14.64 39.27 14.64L39.27 14.64L35.20 14.64L35.20 14.64Q34.99 14.64 34.99 14.43ZM42.40 11.13L42.40 11.13L42.40 11.13Q42.40 10.19 42.67 9.47L42.67 9.47L42.67 9.47Q42.94 8.75 43.41 8.32L43.41 8.32L43.41 8.32Q43.87 7.90 44.45 7.68L44.45 7.68L44.45 7.68Q45.02 7.46 45.68 7.46L45.68 7.46L45.68 7.46Q47.05 7.46 47.95 8.28L47.95 8.28L47.95 8.28Q48.11 8.21 48.25 8.15L48.25 8.15L48.25 8.15Q48.39 8.08 48.52 8.01L48.52 8.01L48.52 8.01Q48.64 7.94 48.73 7.90L48.73 7.90L48.73 7.90Q48.81 7.85 48.92 7.78L48.92 7.78L48.92 7.78Q49.03 7.71 49.06 7.69L49.06 7.69L49.06 7.69Q49.10 7.66 49.21 7.58L49.21 7.58L49.21 7.58Q49.32 7.50 49.33 7.49L49.33 7.49L49.33 7.49Q49.38 7.46 49.40 7.46L49.40 7.46L49.43 7.46L49.43 7.46Q49.44 7.46 49.44 7.49L49.44 7.49L49.44 12.05L49.44 12.05Q49.45 12.34 49.49 12.54L49.49 12.54L49.49 12.54Q49.52 12.75 49.60 12.95L49.60 12.95L49.60 12.95Q49.69 13.15 49.86 13.27L49.86 13.27L49.86 13.27Q50.03 13.39 50.27 13.42L50.27 13.42L50.27 13.42Q50.45 13.44 50.44 13.60L50.44 13.60L50.44 14.08L50.44 14.08Q50.44 14.26 50.23 14.26L50.23 14.26L50.23 14.26Q49.59 14.26 49.07 14.35L49.07 14.35L49.07 14.35Q48.56 14.44 48.31 14.53L48.31 14.53L48.31 14.53Q48.07 14.62 47.65 14.80L47.65 14.80L47.65 14.80Q47.60 14.83 47.54 14.83L47.54 14.83L47.50 14.83L47.50 14.83Q47.48 14.83 47.48 14.78L47.48 14.78L47.65 13.54L47.65 13.54Q47.57 13.72 47.44 13.90L47.44 13.90L47.44 13.90Q47.31 14.09 47.07 14.31L47.07 14.31L47.07 14.31Q46.83 14.54 46.42 14.68L46.42 14.68L46.42 14.68Q46.01 14.83 45.51 14.83L45.51 14.83L45.51 14.83Q45.11 14.83 44.70 14.71L44.70 14.71L44.70 14.71Q44.28 14.59 43.87 14.30L43.87 14.30L43.87 14.30Q43.45 14.01 43.13 13.60L43.13 13.60L43.13 13.60Q42.81 13.19 42.60 12.55L42.60 12.55L42.60 12.55Q42.40 11.91 42.40 11.13ZM44.21 10.68L44.21 10.68L44.21 10.68Q44.21 12.01 44.74 12.80L44.74 12.80L44.74 12.80Q45.27 13.59 46.14 13.59L46.14 13.59L46.14 13.59Q46.44 13.59 46.68 13.49L46.68 13.49L46.68 13.49Q46.92 13.40 47.07 13.27L47.07 13.27L47.07 13.27Q47.21 13.13 47.31 13.00L47.31 13.00L47.31 13.00Q47.41 12.86 47.46 12.76L47.46 12.76L47.49 12.67L47.49 9.86L47.49 9.86Q47.44 9.61 47.35 9.39L47.35 9.39L47.35 9.39Q47.26 9.16 47.09 8.92L47.09 8.92L47.09 8.92Q46.92 8.68 46.62 8.54L46.62 8.54L46.62 8.54Q46.32 8.39 45.93 8.39L45.93 8.39L45.93 8.39Q45.54 8.39 45.23 8.52L45.23 8.52L45.23 8.52Q44.93 8.65 44.74 8.87L44.74 8.87L44.74 8.87Q44.55 9.08 44.43 9.38L44.43 9.38L44.43 9.38Q44.30 9.68 44.26 9.99L44.26 9.99L44.26 9.99Q44.21 10.31 44.21 10.68ZM54.56 14.43L54.56 14.43L54.56 14.01L54.56 14.01Q54.56 13.80 54.78 13.80L54.78 13.80L54.87 13.80L54.87 13.80Q55.81 13.75 55.81 12.47L55.81 12.47L55.81 6.32L55.81 6.32Q55.81 4.98 54.79 4.98L54.79 4.98L54.78 4.98L54.78 4.98Q54.56 4.98 54.56 4.78L54.56 4.78L54.56 4.35L54.56 4.35Q54.56 4.14 54.78 4.14L54.78 4.14L59.08 4.14L59.08 4.14Q60.70 4.14 61.97 4.75L61.97 4.75L61.97 4.75Q63.24 5.36 63.98 6.56L63.98 6.56L63.98 6.56Q64.72 7.76 64.72 9.37L64.72 9.37L64.72 9.37Q64.72 10.50 64.41 11.44L64.41 11.44L64.41 11.44Q64.10 12.38 63.48 13.10L63.48 13.10L63.48 13.10Q62.86 13.83 61.83 14.24L61.83 14.24L61.83 14.24Q60.81 14.64 59.47 14.64L59.47 14.64L54.78 14.64L54.78 14.64Q54.56 14.64 54.56 14.43ZM58.04 4.98L58.04 12.40L58.04 12.40Q58.04 12.68 58.05 12.83L58.05 12.83L58.05 12.83Q58.06 12.99 58.12 13.19L58.12 13.19L58.12 13.19Q58.17 13.38 58.28 13.48L58.28 13.48L58.28 13.48Q58.39 13.58 58.59 13.65L58.59 13.65L58.59 13.65Q58.79 13.73 59.08 13.73L59.08 13.73L59.08 13.73Q59.89 13.73 60.49 13.54L60.49 13.54L60.49 13.54Q61.10 13.34 61.50 12.99L61.50 12.99L61.50 12.99Q61.89 12.64 62.14 12.09L62.14 12.09L62.14 12.09Q62.38 11.55 62.49 10.89L62.49 10.89L62.49 10.89Q62.59 10.23 62.59 9.37L62.59 9.37L62.59 9.37Q62.59 7.29 61.57 6.14L61.57 6.14L61.57 6.14Q60.56 4.98 58.69 4.98L58.69 4.98L58.04 4.98ZM65.55 11.08L65.55 11.08L65.55 11.08Q65.55 10.33 65.74 9.71L65.74 9.71L65.74 9.71Q65.93 9.10 66.25 8.69L66.25 8.69L66.25 8.69Q66.57 8.29 67.00 8.01L67.00 8.01L67.00 8.01Q67.44 7.73 67.90 7.61L67.90 7.61L67.90 7.61Q68.37 7.49 68.89 7.49L68.89 7.49L68.89 7.49Q69.42 7.49 69.89 7.67L69.89 7.67L69.89 7.67Q70.37 7.85 70.70 8.13L70.70 8.13L70.70 8.13Q71.04 8.42 71.28 8.78L71.28 8.78L71.28 8.78Q71.52 9.14 71.64 9.50L71.64 9.50L71.64 9.50Q71.76 9.86 71.76 10.19L71.76 10.19L71.76 10.19Q71.76 10.31 71.65 10.36L71.65 10.36L67.59 12.14L67.59 12.14Q67.85 12.79 68.39 13.22L68.39 13.22L68.39 13.22Q68.93 13.64 69.69 13.64L69.69 13.64L69.69 13.64Q70.16 13.64 70.64 13.38L70.64 13.38L70.64 13.38Q71.11 13.13 71.47 12.61L71.47 12.61L71.47 12.61Q71.51 12.55 71.59 12.55L71.59 12.55L71.59 12.55Q71.68 12.55 72.15 12.82L72.15 12.82L72.15 12.82Q72.20 12.86 72.20 12.93L72.20 12.93L72.20 12.93Q72.20 13.02 72.11 13.18L72.11 13.18L72.11 13.18Q71.23 14.81 69.31 14.81L69.31 14.81L69.31 14.81Q68.18 14.81 67.31 14.30L67.31 14.30L67.31 14.30Q66.45 13.79 66.00 12.94L66.00 12.94L66.00 12.94Q65.55 12.10 65.55 11.08ZM67.63 9.05L67.63 9.05L67.63 9.05Q67.29 9.50 67.29 10.20L67.29 10.20L67.29 10.20Q67.29 10.90 67.42 11.27L67.42 11.27L69.67 10.13L69.67 10.13Q69.67 9.47 69.35 9.03L69.35 9.03L69.35 9.03Q69.03 8.59 68.54 8.59L68.54 8.59L68.54 8.59Q67.98 8.59 67.63 9.05ZM72.00 8.26L72.00 8.26L72.00 7.85L72.00 7.85Q72.00 7.64 72.21 7.64L72.21 7.64L75.45 7.64L75.45 7.64Q75.65 7.64 75.65 7.85L75.65 7.85L75.65 8.26L75.65 8.26Q75.65 8.48 75.45 8.48L75.45 8.48L75.42 8.48L75.42 8.48Q74.95 8.48 74.95 8.89L74.95 8.89L74.95 8.89Q74.95 9.23 75.23 9.81L75.23 9.81L76.52 12.54L77.70 9.81L77.70 9.81Q78.04 9.05 78.04 8.77L78.04 8.77L78.04 8.77Q78.04 8.48 77.73 8.48L77.73 8.48L77.46 8.48L77.46 8.48Q77.25 8.48 77.25 8.26L77.25 8.26L77.25 7.85L77.25 7.85Q77.25 7.64 77.46 7.64L77.46 7.64L80.02 7.64L80.02 7.64Q80.23 7.64 80.23 7.85L80.23 7.85L80.23 8.26L80.23 8.26Q80.23 8.48 80.02 8.48L80.02 8.48L79.82 8.48L79.82 8.48Q79.59 8.48 79.41 8.66L79.41 8.66L79.41 8.66Q79.24 8.84 79.00 9.35L79.00 9.35L76.64 14.49L76.64 14.49Q76.58 14.64 76.40 14.64L76.40 14.64L75.66 14.64L75.66 14.64Q75.48 14.64 75.41 14.49L75.41 14.49L73.06 9.36L73.06 9.36Q72.81 8.83 72.66 8.65L72.66 8.65L72.66 8.65Q72.50 8.48 72.25 8.48L72.25 8.48L72.21 8.48L72.21 8.48Q72.00 8.48 72.00 8.26ZM80.33 11.08L80.33 11.08L80.33 11.08Q80.33 10.33 80.52 9.71L80.52 9.71L80.52 9.71Q80.71 9.10 81.03 8.69L81.03 8.69L81.03 8.69Q81.35 8.29 81.78 8.01L81.78 8.01L81.78 8.01Q82.22 7.73 82.68 7.61L82.68 7.61L82.68 7.61Q83.15 7.49 83.67 7.49L83.67 7.49L83.67 7.49Q84.20 7.49 84.67 7.67L84.67 7.67L84.67 7.67Q85.15 7.85 85.48 8.13L85.48 8.13L85.48 8.13Q85.82 8.42 86.06 8.78L86.06 8.78L86.06 8.78Q86.30 9.14 86.42 9.50L86.42 9.50L86.42 9.50Q86.54 9.86 86.54 10.19L86.54 10.19L86.54 10.19Q86.54 10.31 86.43 10.36L86.43 10.36L82.37 12.14L82.37 12.14Q82.63 12.79 83.17 13.22L83.17 13.22L83.17 13.22Q83.71 13.64 84.46 13.64L84.46 13.64L84.46 13.64Q84.94 13.64 85.42 13.38L85.42 13.38L85.42 13.38Q85.89 13.13 86.25 12.61L86.25 12.61L86.25 12.61Q86.29 12.55 86.37 12.55L86.37 12.55L86.37 12.55Q86.46 12.55 86.93 12.82L86.93 12.82L86.93 12.82Q86.98 12.86 86.98 12.93L86.98 12.93L86.98 12.93Q86.98 13.02 86.89 13.18L86.89 13.18L86.89 13.18Q86.01 14.81 84.09 14.81L84.09 14.81L84.09 14.81Q82.96 14.81 82.09 14.30L82.09 14.30L82.09 14.30Q81.22 13.79 80.78 12.94L80.78 12.94L80.78 12.94Q80.33 12.10 80.33 11.08ZM82.41 9.05L82.41 9.05L82.41 9.05Q82.07 9.50 82.07 10.20L82.07 10.20L82.07 10.20Q82.07 10.90 82.20 11.27L82.20 11.27L84.44 10.13L84.44 10.13Q84.44 9.47 84.13 9.03L84.13 9.03L84.13 9.03Q83.81 8.59 83.32 8.59L83.32 8.59L83.32 8.59Q82.76 8.59 82.41 9.05ZM87.33 14.43L87.33 14.43L87.33 14.01L87.33 14.01Q87.33 13.80 87.53 13.80L87.53 13.80L87.53 13.80Q88.03 13.79 88.30 13.43L88.30 13.43L88.30 13.43Q88.55 13.07 88.55 12.52L88.55 12.52L88.55 12.52Q88.55 12.50 88.55 12.47L88.55 12.47L88.55 7.23L88.55 7.23Q88.55 6.88 88.53 6.66L88.53 6.66L88.53 6.66Q88.50 6.43 88.43 6.18L88.43 6.18L88.43 6.18Q88.35 5.93 88.18 5.78L88.18 5.78L88.18 5.78Q88.00 5.64 87.73 5.61L87.73 5.61L87.73 5.61Q87.55 5.59 87.56 5.43L87.56 5.43L87.56 4.96L87.56 4.96Q87.56 4.87 87.61 4.84L87.61 4.84L87.61 4.84Q87.65 4.81 87.76 4.77L87.76 4.77L87.76 4.77Q89.32 4.25 90.39 3.47L90.39 3.47L90.39 3.47Q90.43 3.45 90.45 3.45L90.45 3.45L90.49 3.45L90.49 3.45Q90.51 3.45 90.52 3.47L90.52 3.47L90.52 12.47L90.52 12.47Q90.52 13.06 90.79 13.43L90.79 13.43L90.79 13.43Q91.05 13.80 91.55 13.80L91.55 13.80L91.55 13.80Q91.76 13.80 91.76 14.01L91.76 14.01L91.76 14.43L91.76 14.43Q91.76 14.64 91.55 14.64L91.55 14.64L87.53 14.64L87.53 14.64Q87.33 14.64 87.33 14.43ZM92.07 11.07L92.07 11.07L92.07 11.07Q92.07 10.01 92.63 9.11L92.63 9.11L92.63 9.11Q93.19 8.20 94.17 7.77L94.17 7.77L94.17 7.77Q94.83 7.47 95.58 7.47L95.58 7.47L95.58 7.47Q96.64 7.47 97.56 8.07L97.56 8.07L97.56 8.07Q98.48 8.66 98.94 9.69L98.94 9.69L98.94 9.69Q99.26 10.41 99.26 11.22L99.26 11.22L99.26 11.22Q99.26 12.28 98.70 13.17L98.70 13.17L98.70 13.17Q98.14 14.07 97.17 14.51L97.17 14.51L97.17 14.51Q96.48 14.81 95.74 14.81L95.74 14.81L95.74 14.81Q94.68 14.81 93.77 14.22L93.77 14.22L93.77 14.22Q92.85 13.62 92.39 12.60L92.39 12.60L92.39 12.60Q92.07 11.87 92.07 11.07ZM93.74 10.19L93.74 10.19L93.74 10.19Q93.74 10.96 94.13 11.83L94.13 11.83L94.13 11.83Q94.49 12.63 95.03 13.16L95.03 13.16L95.03 13.16Q95.57 13.69 96.18 13.69L96.18 13.69L96.18 13.69Q96.46 13.69 96.74 13.57L96.74 13.57L96.74 13.57Q97.59 13.20 97.59 12.09L97.59 12.09L97.59 12.09Q97.59 11.33 97.20 10.46L97.20 10.46L97.20 10.46Q96.84 9.65 96.29 9.12L96.29 9.12L96.29 9.12Q95.75 8.59 95.14 8.59L95.14 8.59L95.14 8.59Q94.87 8.59 94.58 8.72L94.58 8.72L94.58 8.72Q93.74 9.08 93.74 10.19ZM99.54 17.23L99.54 16.81L99.54 16.81Q99.54 16.60 99.76 16.60L99.76 16.60L99.76 16.60Q100.26 16.60 100.52 16.24L100.52 16.24L100.52 16.24Q100.78 15.89 100.78 15.33L100.78 15.33L100.78 15.33Q100.78 15.30 100.78 15.27L100.78 15.27L100.78 15.00L100.78 10.46L100.78 10.46Q100.78 10.19 100.77 10.01L100.77 10.01L100.77 10.01Q100.76 9.82 100.71 9.60L100.71 9.60L100.71 9.60Q100.67 9.37 100.58 9.23L100.58 9.23L100.58 9.23Q100.50 9.09 100.34 8.98L100.34 8.98L100.34 8.98Q100.18 8.87 99.96 8.85L99.96 8.85L99.96 8.85Q99.78 8.83 99.79 8.67L99.79 8.67L99.79 8.20L99.79 8.20Q99.79 8.01 100.00 8.01L100.00 8.01L100.00 8.01Q100.64 8.01 101.16 7.92L101.16 7.92L101.16 7.92Q101.68 7.83 101.90 7.75L101.90 7.75L101.90 7.75Q102.13 7.66 102.57 7.47L102.57 7.47L102.57 7.47Q102.62 7.44 102.68 7.44L102.68 7.44L102.72 7.44L102.72 7.44Q102.74 7.44 102.73 7.49L102.73 7.49L102.58 8.74L102.58 8.74Q102.63 8.60 102.72 8.46L102.72 8.46L102.72 8.46Q102.81 8.31 102.98 8.12L102.98 8.12L102.98 8.12Q103.16 7.93 103.38 7.79L103.38 7.79L103.38 7.79Q103.61 7.65 103.95 7.55L103.95 7.55L103.95 7.55Q104.30 7.44 104.71 7.44L104.71 7.44L104.71 7.44Q105.11 7.44 105.52 7.56L105.52 7.56L105.52 7.56Q105.94 7.68 106.35 7.97L106.35 7.97L106.35 7.97Q106.77 8.25 107.09 8.66L107.09 8.66L107.09 8.66Q107.41 9.08 107.61 9.72L107.61 9.72L107.61 9.72Q107.82 10.36 107.82 11.14L107.82 11.14L107.82 11.14Q107.82 12.07 107.55 12.80L107.55 12.80L107.55 12.80Q107.28 13.52 106.81 13.95L106.81 13.95L106.81 13.95Q106.35 14.38 105.78 14.60L105.78 14.60L105.78 14.60Q105.21 14.81 104.55 14.81L104.55 14.81L104.55 14.81Q103.48 14.81 102.73 14.16L102.73 14.16L102.73 15.27L102.73 15.27Q102.73 15.87 103.00 16.24L103.00 16.24L103.00 16.24Q103.26 16.60 103.76 16.60L103.76 16.60L103.76 16.60Q103.97 16.60 103.97 16.81L103.97 16.81L103.97 17.23L103.97 17.23Q103.97 17.45 103.76 17.45L103.76 17.45L99.75 17.45L99.75 17.45Q99.54 17.45 99.54 17.23L99.54 17.23ZM102.73 9.60L102.73 12.15L102.73 12.15Q102.81 12.87 103.23 13.38L103.23 13.38L103.23 13.38Q103.64 13.90 104.30 13.90L104.30 13.90L104.30 13.90Q104.69 13.90 104.99 13.77L104.99 13.77L104.99 13.77Q105.30 13.64 105.49 13.42L105.49 13.42L105.49 13.42Q105.68 13.21 105.80 12.90L105.80 12.90L105.80 12.90Q105.92 12.60 105.97 12.28L105.97 12.28L105.97 12.28Q106.02 11.96 106.02 11.59L106.02 11.59L106.02 11.59Q106.02 10.26 105.49 9.47L105.49 9.47L105.49 9.47Q104.95 8.68 104.08 8.68L104.08 8.68L104.08 8.68Q103.79 8.68 103.54 8.78L103.54 8.78L103.54 8.78Q103.30 8.87 103.15 9.01L103.15 9.01L103.15 9.01Q103.01 9.15 102.91 9.28L102.91 9.28L102.91 9.28Q102.81 9.41 102.76 9.51L102.76 9.51L102.73 9.60ZM108.31 14.43L108.31 14.43L108.31 14.01L108.31 14.01Q108.31 13.80 108.51 13.80L108.51 13.80L108.55 13.80L108.55 13.80Q109.04 13.80 109.30 13.43L109.30 13.43L109.30 13.43Q109.56 13.06 109.56 12.47L109.56 12.47L109.56 10.71L109.56 10.71Q109.56 10.37 109.54 10.14L109.54 10.14L109.54 10.14Q109.51 9.92 109.44 9.67L109.44 9.67L109.44 9.67Q109.36 9.41 109.18 9.27L109.18 9.27L109.18 9.27Q109.01 9.13 108.73 9.10L108.73 9.10L108.73 9.10Q108.55 9.08 108.57 8.92L108.57 8.92L108.57 8.44L108.57 8.44Q108.57 8.29 108.77 8.26L108.77 8.26L108.77 8.26Q109.67 8.11 110.42 7.81L110.42 7.81L110.42 7.81Q111.18 7.51 111.54 7.24L111.54 7.24L111.54 7.24Q111.60 7.21 111.60 7.21L111.60 7.21L111.64 7.21L111.64 7.21Q111.65 7.21 111.65 7.23L111.65 7.23L111.41 9.06L111.41 9.06Q112.41 7.46 113.83 7.46L113.83 7.46L113.83 7.46Q115.63 7.46 116.05 8.83L116.05 8.83L116.05 8.83Q117.11 7.46 118.62 7.46L118.62 7.46L118.62 7.46Q119.21 7.46 119.64 7.62L119.64 7.62L119.64 7.62Q120.07 7.77 120.33 8.02L120.33 8.02L120.33 8.02Q120.59 8.27 120.74 8.64L120.74 8.64L120.74 8.64Q120.89 9.00 120.95 9.37L120.95 9.37L120.95 9.37Q121.00 9.73 121.00 10.17L121.00 10.17L121.00 12.47L121.00 12.47Q121.00 13.06 121.27 13.43L121.27 13.43L121.27 13.43Q121.54 13.80 122.04 13.80L122.04 13.80L122.17 13.80L122.17 13.80Q122.38 13.80 122.38 14.01L122.38 14.01L122.38 14.43L122.38 14.43Q122.38 14.64 122.17 14.64L122.17 14.64L118.23 14.64L118.23 14.64Q118.02 14.64 118.02 14.43L118.02 14.43L118.02 14.01L118.02 14.01Q118.02 13.80 118.23 13.80L118.23 13.80L118.30 13.80L118.30 13.80Q118.73 13.80 118.88 13.49L118.88 13.49L118.88 13.49Q119.03 13.18 119.03 12.47L119.03 12.47L119.03 10.36L119.03 10.36Q119.03 10.32 119.03 10.23L119.03 10.23L119.03 10.23Q119.03 9.99 119.03 9.86L119.03 9.86L119.03 9.86Q119.03 9.73 119.00 9.51L119.00 9.51L119.00 9.51Q118.98 9.30 118.91 9.18L118.91 9.18L118.91 9.18Q118.85 9.06 118.74 8.94L118.74 8.94L118.74 8.94Q118.64 8.81 118.46 8.75L118.46 8.75L118.46 8.75Q118.28 8.70 118.03 8.70L118.03 8.70L118.03 8.70Q117.46 8.70 116.99 9.05L116.99 9.05L116.99 9.05Q116.53 9.41 116.21 10.02L116.21 10.02L116.21 12.47L116.21 12.47Q116.21 13.21 116.44 13.50L116.44 13.50L116.44 13.50Q116.66 13.80 117.10 13.80L117.10 13.80L117.21 13.80L117.21 13.80Q117.41 13.80 117.41 14.01L117.41 14.01L117.41 14.43L117.41 14.43Q117.41 14.64 117.21 14.64L117.21 14.64L113.41 14.64L113.41 14.64Q113.20 14.64 113.20 14.43L113.20 14.43L113.20 14.01L113.20 14.01Q113.20 13.80 113.41 13.80L113.41 13.80L113.50 13.80L113.50 13.80Q113.84 13.80 114.04 13.49L114.04 13.49L114.04 13.49Q114.24 13.19 114.24 12.52L114.24 12.52L114.24 12.52Q114.24 12.50 114.24 12.47L114.24 12.47L114.24 10.36L114.24 10.36Q114.24 10.32 114.24 10.23L114.24 10.23L114.24 10.23Q114.24 9.95 114.24 9.81L114.24 9.81L114.24 9.81Q114.24 9.68 114.21 9.46L114.21 9.46L114.21 9.46Q114.18 9.24 114.12 9.14L114.12 9.14L114.12 9.14Q114.06 9.03 113.95 8.91L113.95 8.91L113.95 8.91Q113.84 8.79 113.66 8.74L113.66 8.74L113.66 8.74Q113.48 8.70 113.23 8.70L113.23 8.70L113.23 8.70Q112.72 8.70 112.22 9.06L112.22 9.06L112.22 9.06Q111.71 9.43 111.53 9.89L111.53 9.89L111.53 12.47L111.53 12.47Q111.53 13.05 111.77 13.43L111.77 13.43L111.77 13.43Q112.01 13.80 112.42 13.80L112.42 13.80L112.46 13.80L112.46 13.80Q112.66 13.80 112.66 14.01L112.66 14.01L112.66 14.43L112.66 14.43Q112.66 14.64 112.46 14.64L112.46 14.64L108.51 14.64L108.51 14.64Q108.31 14.64 108.31 14.43ZM122.40 11.08L122.40 11.08L122.40 11.08Q122.40 10.33 122.59 9.71L122.59 9.71L122.59 9.71Q122.78 9.10 123.10 8.69L123.10 8.69L123.10 8.69Q123.42 8.29 123.85 8.01L123.85 8.01L123.85 8.01Q124.28 7.73 124.75 7.61L124.75 7.61L124.75 7.61Q125.22 7.49 125.73 7.49L125.73 7.49L125.73 7.49Q126.27 7.49 126.74 7.67L126.74 7.67L126.74 7.67Q127.22 7.85 127.55 8.13L127.55 8.13L127.55 8.13Q127.89 8.42 128.13 8.78L128.13 8.78L128.13 8.78Q128.37 9.14 128.49 9.50L128.49 9.50L128.49 9.50Q128.61 9.86 128.61 10.19L128.61 10.19L128.61 10.19Q128.61 10.31 128.50 10.36L128.50 10.36L124.43 12.14L124.43 12.14Q124.70 12.79 125.24 13.22L125.24 13.22L125.24 13.22Q125.77 13.64 126.53 13.64L126.53 13.64L126.53 13.64Q127.00 13.64 127.48 13.38L127.48 13.38L127.48 13.38Q127.96 13.13 128.32 12.61L128.32 12.61L128.32 12.61Q128.36 12.55 128.43 12.55L128.43 12.55L128.43 12.55Q128.53 12.55 128.99 12.82L128.99 12.82L128.99 12.82Q129.05 12.86 129.05 12.93L129.05 12.93L129.05 12.93Q129.05 13.02 128.96 13.18L128.96 13.18L128.96 13.18Q128.08 14.81 126.16 14.81L126.16 14.81L126.16 14.81Q125.03 14.81 124.16 14.30L124.16 14.30L124.16 14.30Q123.29 13.79 122.85 12.94L122.85 12.94L122.85 12.94Q122.40 12.10 122.40 11.08ZM124.48 9.05L124.48 9.05L124.48 9.05Q124.13 9.50 124.13 10.20L124.13 10.20L124.13 10.20Q124.13 10.90 124.26 11.27L124.26 11.27L126.51 10.13L126.51 10.13Q126.51 9.47 126.19 9.03L126.19 9.03L126.19 9.03Q125.88 8.59 125.39 8.59L125.39 8.59L125.39 8.59Q124.82 8.59 124.48 9.05ZM129.33 14.43L129.33 14.43L129.33 14.01L129.33 14.01Q129.33 13.80 129.53 13.80L129.53 13.80L129.57 13.80L129.57 13.80Q130.06 13.80 130.32 13.43L130.32 13.43L130.32 13.43Q130.59 13.06 130.59 12.47L130.59 12.47L130.59 10.71L130.59 10.71Q130.59 10.37 130.56 10.14L130.56 10.14L130.56 10.14Q130.54 9.92 130.46 9.67L130.46 9.67L130.46 9.67Q130.39 9.41 130.21 9.27L130.21 9.27L130.21 9.27Q130.03 9.13 129.76 9.10L129.76 9.10L129.76 9.10Q129.58 9.08 129.60 8.92L129.60 8.92L129.60 8.44L129.60 8.44Q129.60 8.29 129.79 8.26L129.79 8.26L129.79 8.26Q130.69 8.11 131.45 7.81L131.45 7.81L131.45 7.81Q132.21 7.50 132.57 7.24L132.57 7.24L132.57 7.24Q132.62 7.21 132.63 7.21L132.63 7.21L132.67 7.21L132.67 7.21Q132.68 7.21 132.68 7.23L132.68 7.23L132.43 9.06L132.43 9.06Q133.44 7.46 134.85 7.46L134.85 7.46L134.85 7.46Q135.43 7.46 135.87 7.62L135.87 7.62L135.87 7.62Q136.30 7.77 136.56 8.02L136.56 8.02L136.56 8.02Q136.81 8.27 136.97 8.64L136.97 8.64L136.97 8.64Q137.12 9.00 137.18 9.37L137.18 9.37L137.18 9.37Q137.23 9.73 137.23 10.17L137.23 10.17L137.23 12.47L137.23 12.47Q137.23 13.06 137.50 13.43L137.50 13.43L137.50 13.43Q137.76 13.80 138.26 13.80L138.26 13.80L138.33 13.80L138.33 13.80Q138.54 13.80 138.54 14.01L138.54 14.01L138.54 14.43L138.54 14.43Q138.54 14.64 138.33 14.64L138.33 14.64L134.52 14.64L134.52 14.64Q134.31 14.64 134.31 14.43L134.31 14.43L134.31 14.01L134.31 14.01Q134.31 13.80 134.53 13.80L134.53 13.80L134.53 13.80Q134.91 13.81 135.10 13.44L135.10 13.44L135.10 13.44Q135.27 13.10 135.27 12.55L135.27 12.55L135.27 12.55Q135.27 12.51 135.27 12.47L135.27 12.47L135.27 10.36L135.27 10.36Q135.27 10.32 135.27 10.25L135.27 10.25L135.27 10.25Q135.27 10.04 135.27 9.92L135.27 9.92L135.27 9.92Q135.27 9.81 135.25 9.62L135.25 9.62L135.25 9.62Q135.23 9.43 135.19 9.32L135.19 9.32L135.19 9.32Q135.16 9.21 135.08 9.08L135.08 9.08L135.08 9.08Q135.01 8.94 134.90 8.87L134.90 8.87L134.90 8.87Q134.80 8.80 134.63 8.75L134.63 8.75L134.63 8.75Q134.47 8.70 134.26 8.70L134.26 8.70L134.26 8.70Q133.75 8.70 133.25 9.06L133.25 9.06L133.25 9.06Q132.74 9.43 132.56 9.89L132.56 9.89L132.56 12.47L132.56 12.47Q132.56 13.06 132.82 13.43L132.82 13.43L132.82 13.43Q133.09 13.80 133.58 13.80L133.58 13.80L133.62 13.80L133.62 13.80Q133.82 13.80 133.82 14.01L133.82 14.01L133.82 14.43L133.82 14.43Q133.82 14.64 133.61 14.64L133.61 14.64L129.53 14.64L129.53 14.64Q129.33 14.64 129.33 14.43ZM138.09 8.27L138.09 8.27L138.09 7.85L138.09 7.85Q138.09 7.64 138.30 7.64L138.30 7.64L139.31 7.64L139.31 6.71L139.31 6.71Q139.31 6.53 139.44 6.45L139.44 6.45L139.44 6.45Q140.41 5.93 141.16 5.30L141.16 5.30L141.16 5.30Q141.19 5.26 141.22 5.26L141.22 5.26L141.24 5.26L141.24 5.26Q141.27 5.26 141.27 5.28L141.27 5.28L141.27 7.64L143.14 7.64L143.14 7.64Q143.36 7.64 143.36 7.85L143.36 7.85L143.36 8.46L143.36 8.46Q143.36 8.67 143.14 8.67L143.14 8.67L141.28 8.67L141.28 12.67L141.28 12.67Q141.28 13.62 141.86 13.62L141.86 13.62L141.86 13.62Q142.21 13.62 142.86 13.22L142.86 13.22L142.87 13.21L142.87 13.21Q142.93 13.17 142.99 13.17L142.99 13.17L142.99 13.17Q143.08 13.17 143.16 13.28L143.16 13.28L143.38 13.63L143.38 13.63Q143.42 13.69 143.42 13.75L143.42 13.75L143.42 13.75Q143.42 13.84 143.32 13.92L143.32 13.92L142.90 14.18L142.90 14.18Q141.87 14.82 140.94 14.82L140.94 14.82L140.94 14.82Q140.59 14.82 140.31 14.71L140.31 14.71L140.31 14.71Q140.03 14.61 139.80 14.37L139.80 14.37L139.80 14.37Q139.57 14.13 139.44 13.70L139.44 13.70L139.44 13.70Q139.31 13.27 139.31 12.67L139.31 12.67L139.31 10.08L139.31 10.08Q139.31 9.86 139.31 9.74L139.31 9.74L139.31 9.74Q139.30 9.63 139.29 9.43L139.29 9.43L139.29 9.43Q139.27 9.24 139.23 9.13L139.23 9.13L139.23 9.13Q139.19 9.02 139.12 8.88L139.12 8.88L139.12 8.88Q139.05 8.74 138.94 8.66L138.94 8.66L138.94 8.66Q138.84 8.59 138.67 8.54L138.67 8.54L138.67 8.54Q138.51 8.48 138.30 8.48L138.30 8.48L138.30 8.48Q138.09 8.48 138.09 8.27Z"></path></g><!----><g data-v-d3f97b9e="" id="45efae8f-5b91-4c24-bab8-638ef61e5e5c" transform="matrix(1.5000000953674377,0,0,1.5000000953674377,259.8347555876264,-3.0000001907348732)" stroke="none" fill="black"><path d="M60.535 21.203c-1.835-4.758-7.313-7.596-15.13-7.897C42.436 6.386 37.824 2 32.545 2c-4.735 0-8.93 3.534-11.89 9.251-.505-.026-1.018-.068-1.509-.068-5.896 0-10.307 1.969-12.421 5.542-.136.229-.233.477-.349.716a3.73 3.73 0 0 0-3.542 3.721 3.74 3.74 0 0 0 2.907 3.641c.363 1.64 1.001 3.356 1.94 5.126-3.471 4.527-4.601 9.049-3.129 12.863 1.834 4.758 7.313 7.596 15.128 7.896 1.161 2.707 2.575 5.02 4.181 6.841A3.74 3.74 0 0 0 27.527 62c.696 0 1.34-.201 1.898-.533a9.571 9.571 0 0 0 3.12.533c4.736 0 8.932-3.535 11.892-9.258.504.028 1.016.068 1.505.068 5.896 0 10.306-1.967 12.421-5.541 2.082-3.52 1.717-8.165-.957-13.203 3.47-4.527 4.6-9.047 3.129-12.863zm-2.003.774c1.12 2.901.288 6.424-2.302 10.08-.179-.277-.393-.55-.582-.826a3.724 3.724 0 0 0 1.049-2.588 3.741 3.741 0 0 0-5.842-3.094 47.625 47.625 0 0 0-2.668-2.441 44.482 44.482 0 0 0-1.921-7.601c6.332.447 10.848 2.791 12.266 6.47zm-3.799 11.698c.036.06.063.116.099.177-.045.053-.081.105-.127.158-1.731 1.986-3.89 3.859-6.339 5.578.333-2.42.527-4.951.527-7.588 0-1.944-.105-3.832-.289-5.664.312.291.597.591.895.887a3.705 3.705 0 0 0-.283 1.42 3.74 3.74 0 0 0 3.74 3.74c.292 0 .572-.041.844-.104.322.464.646.928.933 1.396zm-9.129-12.61a55.99 55.99 0 0 0-4.736-3.139 55.035 55.035 0 0 0-3.555-1.911c2.266-.381 4.487-.587 6.618-.592a39.787 39.787 0 0 1 1.673 5.642zM32.545 4.146c4.16 0 7.896 3.548 10.496 9.155-2.917.074-5.97.478-9.07 1.197-3.741-1.547-7.481-2.582-10.989-3.033 2.527-4.528 5.877-7.319 9.563-7.319zm-10.586 9.349c2.694.278 5.563.949 8.48 1.955a56.55 56.55 0 0 0-3.777 1.295 54.695 54.695 0 0 0-6.912 3.244c.581-2.371 1.325-4.552 2.209-6.494zm-2.813-.166c.168 0 .348.021.519.023-1.038 2.43-1.866 5.171-2.455 8.146-3.13 1.992-5.857 4.236-8.037 6.642a17.773 17.773 0 0 1-1.269-3.493 3.733 3.733 0 0 0 2.412-3.486A3.726 3.726 0 0 0 8.5 17.968c.027-.049.044-.103.072-.15 1.713-2.895 5.468-4.489 10.574-4.489zM16.484 37.66c-2.492-2.331-4.577-4.813-6.13-7.341-.037-.06-.063-.117-.1-.177.046-.053.081-.104.128-.158 1.732-1.988 3.891-3.861 6.342-5.58A55.708 55.708 0 0 0 16.195 32c0 1.942.106 3.83.289 5.66zm-9.928 4.359c-1.119-2.903-.289-6.425 2.302-10.081 2.006 3.129 4.746 6.174 8.044 8.949a44.402 44.402 0 0 0 1.92 7.602c-6.332-.45-10.848-2.792-12.266-6.47zM18.342 32c0-3.221.295-6.302.81-9.183a51.924 51.924 0 0 1 8.283-4.07 53.563 53.563 0 0 1 6.347-2.007 52.515 52.515 0 0 1 5.994 3.033c2.3 1.36 4.44 2.862 6.399 4.455.366 2.47.573 5.073.573 7.771 0 3.217-.294 6.297-.808 9.174a51.775 51.775 0 0 1-8.288 4.072 52.965 52.965 0 0 1-6.347 2.008 52.516 52.516 0 0 1-5.994-3.033 52.51 52.51 0 0 1-6.396-4.454A52.985 52.985 0 0 1 18.342 32zm1.141 10.929a55.809 55.809 0 0 0 4.735 3.139 54.809 54.809 0 0 0 3.555 1.911c-2.266.381-4.487.588-6.618.592a40.051 40.051 0 0 1-1.672-5.642zm13.062 16.925a7.344 7.344 0 0 1-1.56-.169 3.74 3.74 0 0 0-3.457-5.166 3.72 3.72 0 0 0-2.546 1.014c-1.086-1.353-2.075-2.98-2.938-4.841 2.918-.073 5.971-.478 9.071-1.197 3.744 1.548 7.486 2.583 10.995 3.034-2.526 4.534-5.879 7.325-9.565 7.325zM43.133 50.5c-2.695-.278-5.566-.949-8.484-1.956a55.963 55.963 0 0 0 3.776-1.295 54.5 54.5 0 0 0 6.917-3.247c-.58 2.372-1.325 4.555-2.209 6.498zm13.382-4.322c-1.712 2.895-5.467 4.487-10.573 4.487-.167 0-.346-.021-.515-.024 1.038-2.43 1.866-5.172 2.455-8.148 3.128-1.992 5.854-4.234 8.032-6.639 1.949 4.033 2.186 7.644.601 10.324z"></path></g><!----></svg>